<svg xmlns="http://www.w3.org/2000/svg" width="114.086" height="51.236" viewBox="0 0 114.086 51.236">
  <g id="Group_11474" data-name="Group 11474" transform="translate(-78 -20)">
    <g id="Group_3415" data-name="Group 3415" transform="translate(120.809 29.768)">
      <path id="Path_57" data-name="Path 57" d="M1439.969,257.84l-7.55,15.1h15.1Zm0,7.045,2.452,4.9h-4.9Z" transform="translate(-1389.455 -257.84)" fill="#342b7c"/>
      <path id="Path_58" data-name="Path 58" d="M729.12,257.84l-7.55,15.1h15.1Zm0,7.045,2.452,4.9h-4.9Z" transform="translate(-721.57 -257.84)" fill="#342b7c"/>
      <path id="Path_59" data-name="Path 59" d="M970.421,267.63v11.709H967.19V267.63H962.72v-2.98h12.171v2.98h-4.469Z" transform="translate(-948.144 -264.238)" fill="#342b7c"/>
      <path id="Path_60" data-name="Path 60" d="M1220.21,279.339V264.65h3.231V276.4h7.323v2.938H1220.21Z" transform="translate(-1190.071 -264.238)" fill="#342b7c"/>
      <path id="Path_61" data-name="Path 61" d="M1714.752,276.079a9.347,9.347,0,0,1-6.232-2.35l1.91-2.288a6.737,6.737,0,0,0,4.385,1.784c1.322,0,2.119-.525,2.119-1.385V271.8c0-.818-.5-1.238-2.959-1.867-2.958-.755-4.868-1.574-4.868-4.491V265.4c0-2.665,2.14-4.427,5.14-4.427a8.5,8.5,0,0,1,5.455,1.868l-1.679,2.434a6.891,6.891,0,0,0-3.819-1.448c-1.238,0-1.889.566-1.889,1.28v.042c0,.965.63,1.28,3.169,1.931,2.979.776,4.657,1.847,4.657,4.407v.042c0,2.916-2.224,4.554-5.393,4.554Z" transform="translate(-1648.867 -260.781)" fill="#342b7c"/>
    </g>
    <g id="Group_3418" data-name="Group 3418" transform="translate(120.516 49.572)">
      <g id="Group_3416" data-name="Group 3416">
        <path id="Path_62" data-name="Path 62" d="M720.269,594.517a5.336,5.336,0,0,1-3.559-1.342l1.09-1.306a3.85,3.85,0,0,0,2.5,1.018c.755,0,1.21-.3,1.21-.791v-.024c0-.467-.288-.707-1.69-1.066-1.689-.432-2.78-.9-2.78-2.564v-.024c0-1.523,1.222-2.528,2.936-2.528a4.857,4.857,0,0,1,3.116,1.067l-.958,1.39a3.941,3.941,0,0,0-2.181-.826c-.707,0-1.078.323-1.078.731v.023c0,.552.359.731,1.809,1.1,1.7.444,2.66,1.054,2.66,2.516v.023c0,1.666-1.27,2.6-3.079,2.6Z" transform="translate(-716.71 -585.866)" fill="#342b7c"/>
        <path id="Path_63" data-name="Path 63" d="M858.907,596.277l-2.6-3.571-.971,1.007v2.565H853.49V587.89h1.845v3.667l3.4-3.667h2.229l-3.415,3.559,3.571,4.829h-2.218Z" transform="translate(-845.223 -587.745)" fill="#342b7c"/>
        <path id="Path_64" data-name="Path 64" d="M1008.31,596.268V587.88h1.845v8.388Z" transform="translate(-990.685 -587.736)" fill="#342b7c"/>
        <path id="Path_65" data-name="Path 65" d="M1082.25,596.268V587.88h1.845v6.71h4.182v1.678h-6.028Z" transform="translate(-1060.156 -587.736)" fill="#342b7c"/>
        <path id="Path_66" data-name="Path 66" d="M1213.69,596.268V587.88h1.845v6.71h4.182v1.678Z" transform="translate(-1183.651 -587.736)" fill="#342b7c"/>
        <path id="Path_67" data-name="Path 67" d="M1328.1,589.572v6.686h-1.845v-6.686H1323.7v-1.7h6.95v1.7H1328.1Z" transform="translate(-1287.012 -587.727)" fill="#342b7c"/>
        <path id="Path_68" data-name="Path 68" d="M1470.81,596.268V587.88h6.326v1.642h-4.494v1.7h3.954v1.642h-3.954v1.762h4.553v1.642Z" transform="translate(-1425.231 -587.736)" fill="#342b7c"/>
        <path id="Path_69" data-name="Path 69" d="M1610.492,594.176a4.234,4.234,0,0,1-4.3-4.315v-.024a4.263,4.263,0,0,1,4.373-4.337,4.325,4.325,0,0,1,3.307,1.294l-1.175,1.355a3.087,3.087,0,0,0-2.144-.947,2.485,2.485,0,0,0-2.432,2.612v.024a2.492,2.492,0,0,0,2.432,2.636,3.029,3.029,0,0,0,2.205-.982l1.174,1.187a4.285,4.285,0,0,1-3.438,1.5Z" transform="translate(-1552.428 -585.5)" fill="#342b7c"/>
        <path id="Path_70" data-name="Path 70" d="M1772.6,596.268V592.9h-3.4v3.367h-1.845V587.88h1.845v3.32h3.4v-3.32h1.845v8.388Z" transform="translate(-1703.847 -587.736)" fill="#342b7c"/>
      </g>
      <g id="Group_3417" data-name="Group 3417" transform="translate(0.294 11.343)">
        <path id="Path_71" data-name="Path 71" d="M724.85,782.676a3.007,3.007,0,0,1-3.28-3.366v-4.33h1.667v4.286c0,1.234.617,1.873,1.635,1.873s1.635-.617,1.635-1.819v-4.34h1.667v4.276c0,2.295-1.288,3.421-3.323,3.421Z" transform="translate(-721.57 -774.87)" fill="#342b7c"/>
        <path id="Path_72" data-name="Path 72" d="M872.105,782.558l-3.67-4.817v4.817H866.79V774.98h1.537l3.551,4.666V774.98h1.645v7.578Z" transform="translate(-858.013 -774.87)" fill="#342b7c"/>
        <path id="Path_73" data-name="Path 73" d="M1017.37,782.558V774.98h1.667v7.578Z" transform="translate(-999.491 -774.87)" fill="#342b7c"/>
        <path id="Path_74" data-name="Path 74" d="M1069.426,782.612h-1.473l-3.064-7.632h1.841l1.98,5.337,1.981-5.337h1.8Z" transform="translate(-1044.139 -774.87)" fill="#342b7c"/>
        <path id="Path_75" data-name="Path 75" d="M1209.3,782.558V774.98h5.716v1.483h-4.059V778h3.572v1.483h-3.572v1.591h4.113v1.483h-5.77Z" transform="translate(-1179.821 -774.87)" fill="#342b7c"/>
        <path id="Path_76" data-name="Path 76" d="M1342.771,782.558l-1.624-2.424h-1.31v2.424h-1.667V774.98h3.464c1.786,0,2.858.942,2.858,2.5v.022a2.354,2.354,0,0,1-1.624,2.349l1.851,2.706Zm.033-4.99c0-.715-.5-1.083-1.31-1.083h-1.657v2.176h1.689c.812,0,1.278-.434,1.278-1.072Z" transform="translate(-1300.901 -774.87)" fill="#342b7c"/>
        <path id="Path_77" data-name="Path 77" d="M1469.995,780.964a4.819,4.819,0,0,1-3.215-1.212l.984-1.18a3.48,3.48,0,0,0,2.263.92c.681,0,1.093-.271,1.093-.715v-.021c0-.422-.26-.638-1.526-.964-1.526-.39-2.511-.812-2.511-2.317v-.022a2.37,2.37,0,0,1,2.652-2.284,4.387,4.387,0,0,1,2.815.963l-.866,1.256a3.555,3.555,0,0,0-1.969-.747c-.639,0-.974.292-.974.66v.022c0,.5.325.66,1.634,1,1.537.4,2.4.952,2.4,2.273v.022c0,1.5-1.147,2.348-2.782,2.348Z" transform="translate(-1421.738 -773.17)" fill="#342b7c"/>
        <path id="Path_78" data-name="Path 78" d="M1598.21,782.558V774.98h1.667v7.578Z" transform="translate(-1545.224 -774.87)" fill="#342b7c"/>
        <path id="Path_79" data-name="Path 79" d="M1651.512,776.517v6.041h-1.667v-6.041h-2.305V774.98h6.278v1.537Z" transform="translate(-1591.573 -774.87)" fill="#342b7c"/>
        <path id="Path_80" data-name="Path 80" d="M1772.068,779.537v3.02H1770.4V779.57l-2.912-4.59h1.948l1.808,3.042,1.839-3.042h1.9Z" transform="translate(-1704.272 -774.87)" fill="#342b7c"/>
      </g>
    </g>
    <g id="Group_3419" data-name="Group 3419" transform="translate(78 50.847)">
      <path id="Path_81" data-name="Path 81" d="M48.559,616.758,30.929,606.58,13.3,616.758l17.629,10.211,17.63-10.211" transform="translate(-13.3 -606.58)" fill="#aeaacb"/>
    </g>
    <g id="Group_3420" data-name="Group 3420" transform="translate(78 20)">
      <path id="Path_82" data-name="Path 82" d="M13.3,106.408v20.357l17.63,10.178,17.629-10.178V106.408L30.93,96.23Z" transform="translate(-13.3 -96.23)" fill="#342b7c"/>
      <path id="Path_83" data-name="Path 83" d="M48.559,106.418l-17.63,10.211L13.3,106.418,30.929,96.24l17.63,10.178m-17.63,10.211v20.324l17.63-10.178V106.418l-17.63,10.211Z" transform="translate(-13.3 -96.239)" fill="#3ca7b6"/>
      <path id="Path_84" data-name="Path 84" d="M313.794,349.01l-8.824,25.435,17.63-10.178Zm.8,8.438,3.191,5.529-6.389,3.689Z" transform="translate(-287.341 -333.732)" fill="#342b7c"/>
    </g>
  </g>
</svg>
