<svg xmlns="http://www.w3.org/2000/svg" width="34" height="34" viewBox="0 0 34 34">
  <g id="Group_11567" data-name="Group 11567" transform="translate(-0.156 -0.404)">
    <g id="Ellipse_316" data-name="Ellipse 316" transform="translate(0.156 0.405)" fill="#1c1c1c" stroke="#fff" stroke-width="1">
      <circle cx="17" cy="17" r="17" stroke="none"/>
      <circle cx="17" cy="17" r="16.5" fill="none"/>
    </g>
    <path id="Path_44682" data-name="Path 44682" d="M12.5,6.714H.668A.609.609,0,0,1,0,6.077.6.6,0,0,1,.569,5.5c.063,0,.127,0,.191,0H12.545c-.069-.073-.112-.122-.157-.167Q10.279,3.218,8.168,1.11A.643.643,0,0,1,7.953.443.606.606,0,0,1,8.947.16c.179.161.344.338.515.509L14.437,5.64a.613.613,0,0,1,0,.926q-2.7,2.7-5.406,5.4a.648.648,0,0,1-.65.218.611.611,0,0,1-.309-.988c.041-.048.088-.092.132-.137Q10.289,8.979,12.372,6.9a1.311,1.311,0,0,1,.168-.123l-.04-.062" transform="translate(9.911 11.132)" fill="#fff"/>
  </g>
</svg>
