<svg xmlns="http://www.w3.org/2000/svg" width="27" height="27" viewBox="0 0 27 27">
  <g id="Group_11169" data-name="Group 11169" transform="translate(27) rotate(90)">
    <g id="Ellipse_316" data-name="Ellipse 316" fill="#e12a7b" stroke="#fff" stroke-width="1">
      <circle cx="13.5" cy="13.5" r="13.5" stroke="none"/>
      <circle cx="13.5" cy="13.5" r="13" fill="none"/>
    </g>
    <path id="Path_44682" data-name="Path 44682" d="M9.788,5.256H.523A.477.477,0,0,1,0,4.758.472.472,0,0,1,.446,4.3c.05,0,.1,0,.149,0H9.823c-.054-.057-.088-.1-.123-.131Q8.048,2.519,6.4.869A.5.5,0,0,1,6.227.346.475.475,0,0,1,7.005.125c.14.126.27.265.4.4l3.9,3.892a.48.48,0,0,1,0,.725Q9.19,7.255,7.074,9.371a.508.508,0,0,1-.509.171.478.478,0,0,1-.242-.774c.032-.038.069-.072.1-.107Q8.057,7.03,9.688,5.4a1.026,1.026,0,0,1,.132-.1l-.032-.049" transform="translate(7.557 8.752)" fill="#fff"/>
  </g>
</svg>
