<svg xmlns="http://www.w3.org/2000/svg" xmlns:xlink="http://www.w3.org/1999/xlink" width="36" height="36" viewBox="0 0 36 36">
  <defs>
    <clipPath id="clip-path">
      <rect id="Rectangle_4672" data-name="Rectangle 4672" width="21.334" height="19.578" fill="#fff"/>
    </clipPath>
  </defs>
  <g id="Group_11694" data-name="Group 11694" transform="translate(-880 -5442)">
    <g id="Group_11602" data-name="Group 11602" transform="translate(880 5442)">
      <circle id="Ellipse_357" data-name="Ellipse 357" cx="18" cy="18" r="18" fill="#e12a7b"/>
    </g>
    <g id="Group_11604" data-name="Group 11604" transform="translate(887.535 5450.04)">
      <g id="Group_11603" data-name="Group 11603" clip-path="url(#clip-path)">
        <path id="Path_44915" data-name="Path 44915" d="M81.455,1.5V12.732a1.893,1.893,0,0,1-1.6,1.5l-14.5,0A1.821,1.821,0,0,1,63.668,12.5l0-10.687A1.823,1.823,0,0,1,65.269,0L79.934,0A1.834,1.834,0,0,1,81.27.96Zm-.875,8.39v-8.2a.948.948,0,0,0-.852-.816l-14.374,0c-.251-.039-.771.448-.771.647V11.772l3.694-3.625c1.412-.835,1.987.771,2.867,1.371.035.024.043.057.1.041a.176.176,0,0,1,.041-.1c1.174-1.254,2.181-2.8,3.354-4.029a1.324,1.324,0,0,1,1.918-.167ZM75.65,5.817a.554.554,0,0,0-.34.195c-1.261,1.366-2.367,3.077-3.645,4.4-.219.227-.4.365-.705.166-.527-.341-1.115-1.272-1.647-1.647a.43.43,0,0,0-.564-.022l-4,4.051a.9.9,0,0,0,.771.4H79.645c1.152-.1.948-1.244.914-2.088L75.9,5.878a.83.83,0,0,0-.253-.061" transform="translate(-60.122)" fill="#fff"/>
        <path id="Path_44916" data-name="Path 44916" d="M15.252,135.708c-4.759-1.322-9.562-2.516-14.3-3.889a1.84,1.84,0,0,1-.934-1.839l1.769-6.618a.446.446,0,1,1,.883.132L.888,130.148a.927.927,0,0,0,.5.893l14.13,3.791a1,1,0,0,0,.764-.444c.368-.851.439-2.012.789-2.841.214-.5.9-.355.837.3a18.916,18.916,0,0,1-.737,2.726,1.907,1.907,0,0,1-1.383,1.14Z" transform="translate(0 -116.13)" fill="#fff"/>
        <path id="Path_44917" data-name="Path 44917" d="M113.757,47.845a1.783,1.783,0,1,1,.484,3.532,1.783,1.783,0,0,1-.484-3.532m.124.876a.9.9,0,0,0,.194,1.78.9.9,0,1,0-.194-1.78" transform="translate(-106.056 -45.161)" fill="#fff"/>
      </g>
    </g>
  </g>
</svg>
