<svg xmlns="http://www.w3.org/2000/svg" width="40" height="40" viewBox="0 0 40 40">
  <g id="Group_3" data-name="Group 3" transform="translate(-876 -13999)">
    <circle id="Ellipse_318" data-name="Ellipse 318" cx="20" cy="20" r="20" transform="translate(876 13999)" fill="#e12a7b"/>
    <g id="ELEMENTS" transform="translate(888.15 14011.148)">
      <path id="Path_3" data-name="Path 3" d="M7.636,12.867H10.9V23.34H7.636ZM9.267,7.66a1.927,1.927,0,1,0,.032,0" transform="translate(-7.38 -7.66)" fill="#fff"/>
      <path id="Path_4" data-name="Path 4" d="M16.07,15.637h3.154v1.407h0a3.423,3.423,0,0,1,3.084-1.7c3.295,0,3.9,2.169,3.9,4.99V26.1H22.973V20.978c0-1.216,0-2.777-1.7-2.777s-1.951,1.324-1.951,2.687v5.182H16.07Z" transform="translate(-10.511 -10.429)" fill="#fff"/>
    </g>
  </g>
</svg>
