<svg xmlns="http://www.w3.org/2000/svg" width="36" height="36" viewBox="0 0 36 36">
  <g id="Group_11128" data-name="Group 11128" transform="translate(-479 -13730)">
    <g id="Ellipse_318" data-name="Ellipse 318" transform="translate(479 13730)" fill="#e12a7b" stroke="#fff" stroke-width="1">
      <circle cx="18" cy="18" r="18" stroke="none"/>
      <circle cx="18" cy="18" r="17.5" fill="none"/>
    </g>
    <path id="Path_44690" data-name="Path 44690" d="M12.775,6.514a2.026,2.026,0,0,1-.185.318.647.647,0,0,1-.53.2q-2.426,0-4.853,0H7.028c-.009-.016-1.246,0-1.281,0H.705a.646.646,0,0,1-.69-.507.633.633,0,0,1,.509-.759,1.421,1.421,0,0,1,.223-.014h5a11.743,11.743,0,0,1,1.281,0H7.2c1.592,0,3.185.006,4.777,0a.728.728,0,0,1,.8.52Z" transform="translate(491 13741.27)" fill="#fff"/>
  </g>
</svg>
