<svg xmlns="http://www.w3.org/2000/svg" width="46" height="47" viewBox="0 0 46 47">
  <g id="Group_10659" data-name="Group 10659" transform="translate(-0.484)">
    <g id="Ellipse_252" data-name="Ellipse 252" transform="translate(0.484)" fill="#fff" stroke="#1c1c1c" stroke-width="0.5">
      <ellipse cx="23" cy="23.5" rx="23" ry="23.5" stroke="none"/>
      <ellipse cx="23" cy="23.5" rx="22.75" ry="23.25" fill="none"/>
    </g>
    <path id="Path_44607" data-name="Path 44607" d="M18.287,9.821H.977A.891.891,0,0,1,0,8.89a.882.882,0,0,1,.832-.85c.093,0,.186,0,.279,0H18.353c-.1-.107-.164-.178-.23-.245q-3.085-3.086-6.173-6.17a.941.941,0,0,1-.315-.976A.887.887,0,0,1,13.089.234c.262.236.5.495.754.744l7.279,7.272a.9.9,0,0,1,0,1.355q-3.955,3.952-7.908,7.9a.948.948,0,0,1-.951.319.894.894,0,0,1-.452-1.446c.06-.071.128-.135.194-.2q3.046-3.047,6.093-6.091a1.917,1.917,0,0,1,.246-.179l-.059-.091" transform="translate(12.736 14.603)" fill="#1c1c1c"/>
  </g>
</svg>
