<svg xmlns="http://www.w3.org/2000/svg" width="36" height="36" viewBox="0 0 36 36">
  <g id="Group_11126" data-name="Group 11126" transform="translate(-893 -13832)">
    <circle id="Ellipse_318" data-name="Ellipse 318" cx="18" cy="18" r="18" transform="translate(893 13832)" fill="#e12a7b"/>
    <path id="Path_44690" data-name="Path 44690" d="M12.775,6.514a2.026,2.026,0,0,1-.185.318.647.647,0,0,1-.53.2q-2.426,0-4.853,0H7.028V7.2c0,1.593-.006,3.186,0,4.779a.729.729,0,0,1-.52.8h-.25c-.006-.005-.011-.013-.018-.016a.646.646,0,0,1-.5-.7q0-2.426,0-4.853V7.029H.705a.646.646,0,0,1-.69-.507.633.633,0,0,1,.509-.759,1.421,1.421,0,0,1,.223-.014h5V5.575q0-2.433,0-4.865a.648.648,0,0,1,.514-.7.634.634,0,0,1,.75.507,1.458,1.458,0,0,1,.015.236q0,2.408,0,4.815v.178H7.2c1.592,0,3.185.006,4.777,0a.728.728,0,0,1,.8.52Z" transform="translate(904.613 13843.611)" fill="#fff"/>
  </g>
</svg>
