<svg id="Group_10660" data-name="Group 10660" xmlns="http://www.w3.org/2000/svg" width="47" height="47" viewBox="0 0 47 47">
  <g id="Ellipse_252" data-name="Ellipse 252" fill="#fff" stroke="#1c1c1c" stroke-width="0.5">
    <circle cx="23.5" cy="23.5" r="23.5" stroke="none"/>
    <circle cx="23.5" cy="23.5" r="23.25" fill="none"/>
  </g>
  <path id="Path_44607" data-name="Path 44607" d="M3.145,9.821h17.31a.891.891,0,0,0,.977-.931.882.882,0,0,0-.832-.85c-.093,0-.186,0-.279,0H3.079c.1-.107.164-.178.23-.245q3.085-3.086,6.173-6.17A.941.941,0,0,0,9.8.647.887.887,0,0,0,8.343.234c-.262.236-.5.495-.754.744L.311,8.251a.9.9,0,0,0,0,1.355q3.955,3.952,7.908,7.9a.948.948,0,0,0,.951.319.894.894,0,0,0,.452-1.446c-.06-.071-.128-.135-.194-.2q-3.046-3.047-6.093-6.091a1.917,1.917,0,0,0-.246-.179l.059-.091" transform="translate(12.816 14.603)" fill="#1c1c1c"/>
</svg>
