<svg xmlns="http://www.w3.org/2000/svg" width="40" height="40" viewBox="0 0 40 40">
  <g id="Group_11484" data-name="Group 11484" transform="translate(0)">
    <g id="Ellipse_316" data-name="Ellipse 316" transform="translate(0)" fill="#e12a7b" stroke="#fff" stroke-width="1">
      <circle cx="20" cy="20" r="20" stroke="none"/>
      <circle cx="20" cy="20" r="19.5" fill="none"/>
    </g>
    <path id="Path_44682" data-name="Path 44682" d="M14.5,7.79H.775A.707.707,0,0,1,0,7.051a.7.7,0,0,1,.66-.674c.074,0,.147,0,.221,0H14.556c-.08-.085-.13-.141-.183-.194q-2.447-2.448-4.9-4.894a.746.746,0,0,1-.25-.774A.7.7,0,0,1,10.381.186c.208.187.4.393.6.59l5.773,5.768a.711.711,0,0,1,0,1.074q-3.137,3.134-6.272,6.27a.752.752,0,0,1-.754.253.709.709,0,0,1-.359-1.147c.048-.056.1-.107.154-.159Q11.939,10.419,14.356,8a1.521,1.521,0,0,1,.2-.142L14.5,7.79" transform="translate(11.501 12.917)" fill="#fff"/>
  </g>
</svg>
