<svg xmlns="http://www.w3.org/2000/svg" xmlns:xlink="http://www.w3.org/1999/xlink" width="109.814" height="109.811" viewBox="0 0 109.814 109.811">
  <defs>
    <clipPath id="clip-path">
      <rect id="Rectangle_4074" data-name="Rectangle 4074" width="109.814" height="109.811" fill="#fff"/>
    </clipPath>
  </defs>
  <g id="Group_11698" data-name="Group 11698" transform="translate(-1780 -15948)">
    <g id="Group_9822" data-name="Group 9822" transform="translate(1780 15948)" opacity="0.6">
      <text id="B" transform="matrix(0.838, -0.545, 0.545, 0.838, 27.053, 24.244)" fill="#fff" font-size="17" font-family="Montserrat-Medium, Montserrat" font-weight="500"><tspan x="0" y="0">B</tspan></text>
      <g id="Group_9814" data-name="Group 9814" clip-path="url(#clip-path)">
        <text id="A" transform="matrix(0.964, -0.266, 0.266, 0.964, 37.794, 17.203)" fill="#fff" font-size="17" font-family="Montserrat-Medium, Montserrat" font-weight="500"><tspan x="0" y="0">A</tspan></text>
        <text id="C" transform="matrix(1, 0.025, -0.025, 1, 49.552, 13.877)" fill="#fff" font-size="17" font-family="Montserrat-Medium, Montserrat" font-weight="500"><tspan x="0" y="0">C</tspan></text>
        <text id="K" transform="translate(61.838 14.107) rotate(18.452)" fill="#fff" font-size="17" font-family="Montserrat-Medium, Montserrat" font-weight="500"><tspan x="0" y="0">K</tspan></text>
      </g>
      <text id="_" data-name=" " transform="translate(73.852 17.466) rotate(30.137)" fill="#fff" font-size="16" font-family="Montserrat-Medium, Montserrat" font-weight="500"><tspan x="0" y="0"> </tspan></text>
      <text id="T" transform="matrix(0.764, 0.646, -0.646, 0.764, 77.332, 20.327)" fill="#fff" font-size="17" font-family="Montserrat-Medium, Montserrat" font-weight="500"><tspan x="0" y="0">T</tspan></text>
      <text id="O" transform="matrix(0.549, 0.836, -0.836, 0.549, 85.035, 26.297)" fill="#fff" font-size="17" font-family="Montserrat-Medium, Montserrat" font-weight="500"><tspan x="0" y="0">O</tspan></text>
      <g id="Group_9817" data-name="Group 9817">
        <g id="Group_9816" data-name="Group 9816" clip-path="url(#clip-path)">
          <text id="_2" data-name=" " transform="translate(93.404 38.214) rotate(69.801)" fill="#fff" font-size="16" font-family="Montserrat-Medium, Montserrat" font-weight="500"><tspan x="0" y="0"> </tspan></text>
          <text id="T-2" data-name="T" transform="translate(94.257 42.629) rotate(79.962)" fill="#fff" font-size="17" font-family="Montserrat-Medium, Montserrat" font-weight="500"><tspan x="0" y="0">T</tspan></text>
          <text id="O-2" data-name="O" transform="translate(96.355 52.149) rotate(96.408)" fill="#fff" font-size="17" font-family="Montserrat-Medium, Montserrat" font-weight="500"><tspan x="0" y="0">O</tspan></text>
          <text id="P" transform="translate(94.685 66.33) rotate(114.919)" fill="#fff" font-size="17" font-family="Montserrat-Medium, Montserrat" font-weight="500"><tspan x="0" y="0">P</tspan></text>
        </g>
      </g>
      <text id="_3" data-name=" " transform="matrix(-0.596, 0.803, -0.803, -0.596, 89.964, 77.941)" fill="#fff" font-size="16" font-family="Montserrat-Medium, Montserrat" font-weight="500"><tspan x="0" y="0"> </tspan></text>
      <text id="B-2" data-name="B" transform="translate(86.925 81.176) rotate(138.63)" fill="#fff" font-size="17" font-family="Montserrat-Medium, Montserrat" font-weight="500"><tspan x="0" y="0">B</tspan></text>
      <g id="Group_9819" data-name="Group 9819">
        <g id="Group_9818" data-name="Group 9818" clip-path="url(#clip-path)">
          <text id="A-2" data-name="A" transform="matrix(-0.915, 0.404, -0.404, -0.915, 77.326, 89.699)" fill="#fff" font-size="17" font-family="Montserrat-Medium, Montserrat" font-weight="500"><tspan x="0" y="0">A</tspan></text>
          <text id="C-2" data-name="C" transform="matrix(-0.993, 0.119, -0.119, -0.993, 66.157, 94.729)" fill="#fff" font-size="17" font-family="Montserrat-Medium, Montserrat" font-weight="500"><tspan x="0" y="0">C</tspan></text>
          <text id="K-2" data-name="K" transform="translate(53.997 96.259) rotate(-169.984)" fill="#fff" font-size="17" font-family="Montserrat-Medium, Montserrat" font-weight="500"><tspan x="0" y="0">K</tspan></text>
          <text id="_4" data-name=" " transform="translate(41.606 94.696) rotate(-158.259)" fill="#fff" font-size="16" font-family="Montserrat-Medium, Montserrat" font-weight="500"><tspan x="0" y="0"> </tspan></text>
        </g>
      </g>
      <text id="_5" data-name=" " transform="translate(37.301 92.985) rotate(-151.9)" fill="#fff" font-size="16" font-family="Montserrat-Medium, Montserrat" font-weight="500"><tspan x="0" y="0"> </tspan></text>
      <text id="T-3" data-name="T" transform="matrix(-0.786, -0.618, 0.618, -0.786, 33.726, 90.254)" fill="#fff" font-size="17" font-family="Montserrat-Medium, Montserrat" font-weight="500"><tspan x="0" y="0">T</tspan></text>
      <text id="O-3" data-name="O" transform="translate(25.82 84.562) rotate(-125.332)" fill="#fff" font-size="17" font-family="Montserrat-Medium, Montserrat" font-weight="500"><tspan x="0" y="0">O</tspan></text>
      <g id="Group_9821" data-name="Group 9821">
        <g id="Group_9820" data-name="Group 9820" clip-path="url(#clip-path)">
          <text id="_6" data-name=" " transform="translate(17.021 72.929) rotate(-112.225)" fill="#fff" font-size="16" font-family="Montserrat-Medium, Montserrat" font-weight="500"><tspan x="0" y="0"> </tspan></text>
          <text id="T-4" data-name="T" transform="translate(16.016 68.56) rotate(-102.081)" fill="#fff" font-size="17" font-family="Montserrat-Medium, Montserrat" font-weight="500"><tspan x="0" y="0">T</tspan></text>
          <text id="O-4" data-name="O" transform="translate(13.58 59.113) rotate(-85.603)" fill="#fff" font-size="17" font-family="Montserrat-Medium, Montserrat" font-weight="500"><tspan x="0" y="0">O</tspan></text>
          <text id="P-2" data-name="P" transform="translate(14.75 44.886) rotate(-67.118)" fill="#fff" font-size="17" font-family="Montserrat-Medium, Montserrat" font-weight="500"><tspan x="0" y="0">P</tspan></text>
        </g>
      </g>
    </g>
    <path id="Path_33436" data-name="Path 33436" d="M14.835,7.185h-.223c-4.552,0-19.1,0-23.655,0a1.479,1.479,0,0,1-.372-.031.79.79,0,0,1-.579-.837.791.791,0,0,1,.758-.722c.075,0,.15,0,.225,0H14.843l.067-.088a.666.666,0,0,1-.184-.092q-2.009-2-4.013-4A.8.8,0,0,1,11.734.177a1.915,1.915,0,0,1,.15.142L17.3,5.728a.818.818,0,0,1,0,1.317Q14.578,9.77,11.849,12.5a.826.826,0,0,1-.845.272.8.8,0,0,1-.4-1.289c.045-.052.1-.1.144-.148q1.985-1.982,3.972-3.963a1.084,1.084,0,0,1,.168-.115l-.054-.068" transform="translate(1828.509 16006.725) rotate(-90)" fill="#fff" opacity="0.6"/>
  </g>
</svg>
