<svg id="Group_4265" data-name="Group 4265" xmlns="http://www.w3.org/2000/svg" width="19.428" height="19.428" viewBox="0 0 19.428 19.428">
  <path id="Path_32118" data-name="Path 32118" d="M391.664,726.484a1.142,1.142,0,1,0,1.143,1.142A1.142,1.142,0,0,0,391.664,726.484Zm-5.078,1.465a4.8,4.8,0,1,0,4.8,4.8A4.8,4.8,0,0,0,386.587,727.949Zm0,7.871a3.073,3.073,0,1,1,3.073-3.073A3.077,3.077,0,0,1,386.587,735.82Zm9.681-7.061a5.852,5.852,0,0,0-5.852-5.852h-7.723a5.852,5.852,0,0,0-5.853,5.852v7.724a5.852,5.852,0,0,0,5.853,5.851h7.723a5.851,5.851,0,0,0,5.852-5.851Zm-1.833,7.724a4.019,4.019,0,0,1-4.019,4.019h-7.723a4.019,4.019,0,0,1-4.02-4.019v-7.724a4.02,4.02,0,0,1,4.02-4.019h7.723a4.019,4.019,0,0,1,4.019,4.019Z" transform="translate(-376.84 -722.907)" fill="#fff"/>
</svg>
